Coordinates
version=1
nRows=12
nColumns=38
inDegrees=yes

Units are S.I. units (second, meters, Newtons, ...)
Angles are in degrees.

endheader
time	pelvis_tilt	pelvis_list	pelvis_rotation	pelvis_tx	pelvis_ty	pelvis_tz	hip_flexion_r	hip_adduction_r	hip_rotation_r	knee_angle_r	ankle_angle_r	subtalar_angle_r	mtp_angle_r	hip_flexion_l	hip_adduction_l	hip_rotation_l	knee_angle_l	ankle_angle_l	subtalar_angle_l	mtp_angle_l	lumbar_extension	lumbar_bending	lumbar_rotation	arm_flex_r	arm_add_r	arm_rot_r	elbow_flex_r	pro_sup_r	wrist_flex_r	wrist_dev_r	arm_flex_l	arm_add_l	arm_rot_l	elbow_flex_l	pro_sup_l	wrist_flex_l	wrist_dev_l
      0.85500000	    -20.21848873	     -4.75947513	      5.63157082	     -0.21929412	      1.05711290	      0.37040042	     18.90537579	     -4.22279055	    -13.16301476	     -4.04950160	    -36.48958135	      0.00000000	      0.00000000	     17.84719632	     -9.14893614	     -9.87481660	      0.69292271	    -36.51019611	      0.00000000	      0.00000000	     15.94117183	      4.62951599	    -19.57012053	     -2.86230789	    -64.47615838	     67.44288174	    111.35919332	     85.12110763	      0.00000000	      0.00000000	    -70.32582822	    -34.16796831	      4.33178811	    124.23176761	      3.78509631	      0.00000000	      0.00000000
      0.85750000	    -19.85515563	     -4.64290332	      5.87435220	     -0.22048633	      1.06386710	      0.37044485	     18.93615329	     -4.50015038	    -14.69889457	     -4.87666906	    -36.68808772	      0.00000000	      0.00000000	     17.83738986	     -8.93120416	    -10.69000508	      0.10418192	    -36.10693328	      0.00000000	      0.00000000	     15.93530446	      4.26194805	    -22.50685915	     10.40873168	    -63.52906176	     81.08142093	    110.29660911	     82.69874498	      0.00000000	      0.00000000	    -71.72540228	    -31.35603131	      2.80563796	    123.86487601	      4.13451215	      0.00000000	      0.00000000
      0.86000000	    -19.70446525	     -4.52533252	      5.96795951	     -0.21980368	      1.07061804	      0.37053339	     18.97876881	     -4.74114120	    -15.82559157	     -5.55299150	    -37.03939945	      0.00000000	      0.00000000	     17.80948571	     -8.72950652	    -11.69935049	     -0.39449591	    -35.84185952	      0.00000000	      0.00000000	     16.00465809	      4.15630302	    -22.46903535	     10.58991728	    -62.96716869	     81.05202645	    109.59357565	     82.62493785	      0.00000000	      0.00000000	    -71.28153246	    -31.85720711	      3.09403163	    123.67205660	      4.13153700	      0.00000000	      0.00000000
      0.86250000	    -19.49256347	     -4.32426447	      6.12583627	     -0.21933022	      1.07727432	      0.37027824	     19.03101607	     -5.17790734	    -17.56735141	     -6.41550528	    -37.67739165	      0.00000000	      0.00000000	     17.78494854	     -8.41048625	    -13.11341303	     -0.95692471	    -35.95869587	      0.00000000	      0.00000000	     16.00982312	      4.00860659	    -22.39486703	     10.83932470	    -62.57029785	     81.13693945	    109.17835642	     82.58311094	      0.00000000	      0.00000000	    -70.71630817	    -32.50580160	      3.42231668	    123.51692540	      4.12578334	      0.00000000	      0.00000000
      0.86500000	    -19.22344826	     -4.14414277	      6.26963899	     -0.21870818	      1.08404425	      0.37030493	     18.98683358	     -5.55108314	    -18.93218523	     -7.21043116	    -38.23726660	      0.00000000	      0.00000000	     17.71800967	     -8.16752936	    -14.31053281	     -1.58929508	    -36.24358171	      0.00000000	      0.00000000	     15.97103108	      3.85765066	    -22.35710012	     11.12738395	    -62.02438677	     81.20555948	    108.57068412	     82.59662363	      0.00000000	      0.00000000	    -70.13282671	    -33.15148269	      3.85098753	    123.24116740	      4.10314981	      0.00000000	      0.00000000
      0.86750000	    -18.88754297	     -3.95308558	      6.40812453	     -0.21808190	      1.09081700	      0.37023943	     18.85991863	     -5.93409012	    -20.14025083	     -8.04913246	    -38.57763111	      0.00000000	      0.00000000	     17.59578270	     -7.92935238	    -15.39281979	     -2.28186337	    -36.53480046	      0.00000000	      0.00000000	     15.82209138	      3.71561368	    -22.25060888	     11.37452751	    -61.50271946	     81.32224317	    107.89823895	     82.61836768	      0.00000000	      0.00000000	    -69.43821115	    -33.82293288	      4.32727402	    122.93469254	      4.08242304	      0.00000000	      0.00000000
      0.87000000	    -18.51116725	     -3.74885931	      6.54911515	     -0.21744272	      1.09745560	      0.37025018	     18.65965032	     -6.31170293	    -21.14732313	     -8.86556937	    -38.82802548	      0.00000000	      0.00000000	     17.41658490	     -7.69359889	    -16.31494672	     -2.97079801	    -36.83169070	      0.00000000	      0.00000000	     15.64480407	      3.55396184	    -22.16164524	     11.64514921	    -60.97952355	     81.43662162	    107.25020977	     82.66336231	      0.00000000	      0.00000000	    -68.72425250	    -34.50725683	      4.84724271	    122.59113363	      4.04396569	      0.00000000	      0.00000000
      0.87250000	    -18.12891701	     -3.56548488	      6.70555414	     -0.21693265	      1.10397134	      0.37033927	     18.43643441	     -6.64934618	    -21.99126981	     -9.67030913	    -38.84097034	      0.00000000	      0.00000000	     17.22112542	     -7.48390110	    -17.07282944	     -3.64829330	    -37.04019559	      0.00000000	      0.00000000	     15.41340137	      3.39920722	    -22.08835974	     11.87880941	    -60.44699008	     81.54962706	    106.60148602	     82.72905524	      0.00000000	      0.00000000	    -67.98546308	    -35.18345961	      5.39277419	    122.21418970	      3.98960716	      0.00000000	      0.00000000
      0.87500000	    -17.74698578	     -3.38890351	      6.86684760	     -0.21642654	      1.11035997	      0.37026647	     18.17259446	     -6.95956754	    -22.63341319	    -10.41268190	    -38.69284775	      0.00000000	      0.00000000	     17.03319001	     -7.27689705	    -17.61082168	     -4.35981459	    -37.15264507	      0.00000000	      0.00000000	     15.17295819	      3.27581303	    -22.00882026	     12.09696636	    -59.97031817	     81.67112433	    105.98780913	     82.81837969	      0.00000000	      0.00000000	    -67.14997686	    -35.87196605	      6.01842248	    121.80040952	      3.91128571	      0.00000000	      0.00000000
      0.87750000	    -17.26470663	     -3.26241403	      7.07520567	     -0.21599880	      1.11685988	      0.37008209	     17.77212426	     -7.20097375	    -23.18141799	    -11.10236227	    -38.53665689	      0.00000000	      0.00000000	     16.69919711	     -7.09963019	    -17.83327557	     -4.97273731	    -37.22346122	      0.00000000	      0.00000000	     14.81189219	      3.22442836	    -21.93092398	     12.22879510	    -59.52546740	     81.69381879	    105.35323483	     83.08222195	      0.00000000	      0.00000000	    -66.16320448	    -36.60977176	      6.78579444	    121.34002424	      3.71128825	      0.00000000	      0.00000000
      0.88000000	    -17.05467159	     -3.17776982	      7.20202873	     -0.21586194	      1.12293445	      0.37014124	     17.72131014	     -7.36959355	    -23.26034362	    -11.76532483	    -38.48510042	      0.00000000	      0.00000000	     16.68759980	     -6.96701248	    -17.85361843	     -5.63924127	    -37.21544599	      0.00000000	      0.00000000	     14.67784823	      3.16801661	    -21.90106253	     12.41081381	    -59.02549505	     81.73569851	    104.65911688	     83.11651015	      0.00000000	      0.00000000	    -65.33396020	    -37.05672162	      7.31331588	    120.82407839	      3.66880827	      0.00000000	      0.00000000
      0.88250000	    -16.60364113	     -3.05542039	      7.43817444	     -0.21552975	      1.12923071	      0.36964519	     17.36655629	     -7.61091494	    -23.52194764	    -12.40657625	    -38.42850717	      0.00000000	      0.00000000	     16.36990853	     -6.75252435	    -17.73757604	     -6.22124599	    -37.16884826	      0.00000000	      0.00000000	     14.33349070	      3.15595471	    -21.74994906	     12.50460943	    -58.75746638	     81.88705299	    104.21201117	     83.33338227	      0.00000000	      0.00000000	    -64.05177198	    -37.96917028	      8.52769380	    120.30767545	      3.49992918	      0.00000000	      0.00000000
